<svg width="72" height="72" viewBox="0 0 72 72" fill="none" xmlns="http://www.w3.org/2000/svg">
<g clip-path="url(#clip0_224_4)">
<circle cx="36" cy="36" r="36" fill="#0C0F1B"/>
<path d="M27.0786 24L35.4306 24.048V48H32.8386L29.3346 44.064C26.8386 46.784 24.2306 48.144 21.5106 48.144C19.6546 48.144 18.1186 47.504 16.9026 46.224C15.6866 44.944 15.0786 43.312 15.0786 41.328V26.928L12.9666 24H21.3186V41.28C21.3186 42.528 21.7186 43.568 22.5186 44.4C23.3506 45.2 24.3106 45.6 25.3986 45.6C26.7106 45.6 27.9746 44.944 29.1906 43.632V26.928L27.0786 24ZM51.7101 33.792C55.9661 36.032 58.0941 38.464 58.0941 41.088C58.0941 43.104 57.2621 44.768 55.5981 46.08C53.9661 47.36 51.9981 48 49.6941 48H40.5741L39.7581 40.128L47.8701 47.424C48.4461 47.52 49.0541 47.568 49.6941 47.568C51.1021 47.568 52.2861 47.312 53.2461 46.8C54.2061 46.288 54.6861 45.616 54.6861 44.784C54.6861 44.272 54.5261 43.776 54.2061 43.296C53.9181 42.816 53.4221 42.336 52.7181 41.856C52.0461 41.376 51.4541 40.992 50.9421 40.704C50.4621 40.384 49.7261 39.968 48.7341 39.456C47.7421 38.912 47.1021 38.56 46.8141 38.4L44.5581 37.152C41.1661 35.264 39.4701 32.96 39.4701 30.24C39.4701 28.384 40.2061 26.88 41.6781 25.728C43.1501 24.576 44.9261 24 47.0061 24H55.4541L56.4141 31.488L49.1181 24.624C48.5421 24.496 47.8381 24.432 47.0061 24.432C45.8541 24.432 44.8301 24.608 43.9341 24.96C43.0381 25.312 42.5901 25.904 42.5901 26.736C42.5901 27.28 42.7181 27.792 42.9741 28.272C43.2301 28.72 43.6941 29.184 44.3661 29.664C45.0381 30.144 45.6461 30.544 46.1901 30.864C46.7661 31.184 47.6301 31.648 48.7821 32.256L51.7101 33.792Z" fill="#9F67C1"/>
</g>
<defs>
<clipPath id="clip0_224_4">
<rect width="72" height="72" fill="white"/>
</clipPath>
</defs>
</svg>
